<svg id="Layer_1" data-name="Layer 1" xmlns="http://www.w3.org/2000/svg" viewBox="0 0 672.68 685.13"><defs><style>.cls-1{fill:#0b6db5;}.cls-2{fill:#4db0e4;}.cls-3{fill:#3b5675;}.cls-4{fill:#4db1e5;}</style></defs><circle class="cls-1" cx="528.73" cy="109.58" r="50.3"/><path class="cls-1" d="M1876.68,504.06s-81.22,110.64-6.13,204.12c0,0-199.12-125.25-271,43.93C1599.51,752.11,1618.51,490.58,1876.68,504.06Z" transform="translate(-1387.9 -503.56)"/><circle class="cls-2" cx="1464.73" cy="846.4" r="50.3" transform="translate(-1212.98 1437.47) rotate(-70.34)"/><path class="cls-2" d="M1387.9,933.53s136,18.63,182.34-91.95c0,0-15.15,234.74,167.85,217.29C1738.09,1058.87,1499.15,1166.88,1387.9,933.53Z" transform="translate(-1387.9 -503.56)"/><circle class="cls-3" cx="1893.52" cy="1138.38" r="50.3" transform="translate(-1697.64 799.04) rotate(-35.28)"/><path class="cls-3" d="M2007.06,1162.93s-50.08-127.79-169.22-114.3c0,0,212.29-101.32,107.76-252.54C1945.6,796.09,2156.47,952,2007.06,1162.93Z" transform="translate(-1387.9 -503.56)"/><path class="cls-4" d="M1648.43,897.55v-82.8h54.27v14.93h-36.57v17h36.57v15h-36.57V882.5h36.57v15Z" transform="translate(-1387.9 -503.56)"/><path class="cls-4" d="M1714.18,897.55l31.5-82.8h20.24l31.95,82.8h-20.13L1771,880h-32.07l-5.76,17.59Zm52.7-31.5-9.27-26.75c-.27-.8-.6-2.15-1-4.07s-.85-4.28-1.3-7.07c-.49,2.67-1,5.08-1.42,7.21s-.79,3.55-1,4.27l-8.94,26.41Z" transform="translate(-1387.9 -503.56)"/><path class="cls-4" d="M1812.37,897.55v-82.8h22.57q13.35,0,21,1.87a36.75,36.75,0,0,1,13.51,6.22,35.93,35.93,0,0,1,11.4,14.11,50.32,50.32,0,0,1-.09,38.92,35.77,35.77,0,0,1-11.59,14,37.36,37.36,0,0,1-12.58,5.85q-6.93,1.79-20.28,1.78h-24Zm17.7-14.93h9.85q13.9,0,20.27-6.33t6.36-20.08q0-13.69-6.36-20.05t-20.27-6.36h-9.85Z" transform="translate(-1387.9 -503.56)"/></svg>